<svg width="37" height="37" viewBox="0 0 37 37" fill="none" xmlns="http://www.w3.org/2000/svg">
<path d="M3.56145 17.3315C3.50478 17.1043 3.50061 16.8671 3.54927 16.6381C3.59793 16.409 3.69813 16.194 3.84227 16.0095C3.98641 15.8249 4.1707 15.6756 4.38115 15.5729C4.59161 15.4702 4.82269 15.4168 5.05687 15.4167H31.9435C32.1777 15.4168 32.4088 15.4702 32.6192 15.5729C32.8297 15.6756 33.014 15.8249 33.1581 16.0095C33.3023 16.194 33.4025 16.409 33.4511 16.6381C33.4998 16.8671 33.4956 17.1043 33.439 17.3315L30.647 28.4978C30.4803 29.1648 30.0953 29.757 29.5534 30.1802C29.0115 30.6034 28.3437 30.8333 27.6562 30.8334H9.34424C8.65667 30.8333 7.98886 30.6034 7.44696 30.1802C6.90505 29.757 6.52014 29.1648 6.35341 28.4978L3.56145 17.333V17.3315Z" stroke="#3C39C6" stroke-width="1.5" stroke-linejoin="round"/>
<path d="M13.875 19.5V25.5M23.125 19.5V25.5M9.25 15.4167L15.4167 6.16675M27.75 15.4167L21.5833 6.16675" stroke="#3C39C6" stroke-width="1.5" stroke-linecap="round"/>
</svg>
