<?xml version="1.0" encoding="UTF-8"?>
<!-- Generated by Pixelmator Pro 3.3.5 -->
<svg width="100" height="100" viewBox="0 0 100 100" xmlns="http://www.w3.org/2000/svg">
    <path id="Rectangle" fill="#000000" fill-rule="evenodd" stroke="none" d="M 16.497955 35.394493 C 15.255449 36.875252 15.448593 39.082897 16.929354 40.325405 L 47.571133 66.036911 C 49.051891 67.279411 51.259537 67.086273 52.502045 65.605515 C 53.744553 64.124748 53.551407 61.917103 52.070644 60.674595 L 21.428867 34.963089 C 19.948107 33.720589 17.740461 33.913727 16.497955 35.394493 Z"/>
    <path id="Rectangle-copy" fill="#000000" fill-rule="evenodd" stroke="none" d="M 47.149757 65.605515 C 48.392262 67.086273 50.599907 67.279419 52.080669 66.036911 L 82.72245 40.325405 C 84.203209 39.082897 84.396355 36.875252 83.153847 35.394493 C 81.911339 33.913727 79.70369 33.720589 78.222931 34.963089 L 47.581154 60.674595 C 46.100395 61.917103 45.907249 64.124748 47.149757 65.605515 Z"/>
</svg>
