<?xml version="1.0" encoding="UTF-8"?>
<!-- Generated by Pixelmator Pro 3.3.5 -->
<svg width="100" height="100" viewBox="0 0 100 100" xmlns="http://www.w3.org/2000/svg">
    <path id="Rectangle" fill="#ffffff" fill-rule="evenodd" stroke="none" d="M 45.599998 62.9641 C 46.704571 64.877274 49.150932 65.532776 51.064102 64.428207 L 88.303192 42.928204 C 90.21637 41.823631 90.871864 39.377274 89.767296 37.4641 C 88.662727 35.550934 86.21637 34.895432 84.303192 36 L 47.064102 57.5 C 45.150932 58.604568 44.49543 61.05093 45.599998 62.9641 Z"/>
    <path id="Rectangle-copy" fill="#ffffff" fill-rule="evenodd" stroke="none" d="M 8.5 37.4641 C 7.395431 39.377274 8.050931 41.823635 9.964102 42.928204 L 47.203194 64.428207 C 49.116367 65.532776 51.562725 64.877274 52.667297 62.9641 C 53.771866 61.05093 53.116367 58.604572 51.203194 57.5 L 13.964102 36 C 12.050931 34.895432 9.604569 35.550934 8.5 37.4641 Z"/>
</svg>
