<?xml version="1.0" encoding="UTF-8"?>
<!-- Generated by Pixelmator Pro 3.3.5 -->
<svg width="100" height="100" viewBox="0 0 100 100" xmlns="http://www.w3.org/2000/svg">
    <path id="Rectangle" fill="#cecece" fill-rule="evenodd" stroke="#cecece" stroke-width="4" d="M 57.439018 48.29567 C 56.401062 47.917885 55.253376 48.45306 54.875591 49.491016 L 40.852764 88.01841 C 40.474979 89.056366 41.010155 90.204056 42.048111 90.581841 L 42.133537 90.61293 C 43.171494 90.990715 44.319176 90.455536 44.69696 89.417587 L 58.719788 50.890186 C 59.097572 49.852234 58.562401 48.704548 57.524445 48.326763 Z"/>
    <path id="Rectangle-copy" fill="#cecece" fill-rule="evenodd" stroke="#cecece" stroke-width="4" d="M 57.46825 51.826046 C 58.506207 51.448261 59.041378 50.300575 58.663593 49.262619 L 44.64077 10.735222 C 44.262985 9.697266 43.115299 9.162094 42.077343 9.539879 L 41.991917 9.570969 C 40.95396 9.948753 40.418785 11.096443 40.79657 12.134399 L 54.819397 50.661793 C 55.197182 51.699749 56.344868 52.234924 57.382824 51.85714 Z"/>
</svg>
