<?xml version="1.0" encoding="UTF-8"?>
<!-- Generated by Pixelmator Pro 3.3.5 -->
<svg width="100" height="100" viewBox="0 0 100 100" xmlns="http://www.w3.org/2000/svg">
    <path id="Rectangle" fill="#cecece" fill-rule="evenodd" stroke="#cecece" stroke-width="4" d="M 42.560982 51.70433 C 43.598938 52.082115 44.746624 51.54694 45.124409 50.508984 L 59.147236 11.98159 C 59.525021 10.943634 58.989845 9.795944 57.951889 9.418159 L 57.866463 9.38707 C 56.828506 9.009285 55.680824 9.544464 55.30304 10.582413 L 41.280212 49.109814 C 40.902428 50.147766 41.437599 51.295452 42.475555 51.673237 Z"/>
    <path id="Rectangle-copy" fill="#cecece" fill-rule="evenodd" stroke="#cecece" stroke-width="4" d="M 42.53175 48.173954 C 41.493793 48.551739 40.958622 49.699425 41.336407 50.737381 L 55.35923 89.264778 C 55.737015 90.302734 56.884701 90.837906 57.922657 90.460121 L 58.008083 90.429031 C 59.04604 90.051247 59.581215 88.903557 59.20343 87.865601 L 45.180603 49.338207 C 44.802818 48.300251 43.655132 47.765076 42.617176 48.14286 Z"/>
</svg>
