<?xml version="1.0" encoding="UTF-8"?>
<!-- Generated by Pixelmator Pro 3.3.5 -->
<svg width="100" height="100" viewBox="0 0 100 100" xmlns="http://www.w3.org/2000/svg">
    <path id="Rectangle" fill="#ffffff" fill-rule="evenodd" stroke="none" d="M 51.70433 57.439018 C 52.082115 56.401062 51.54694 55.253376 50.508984 54.875591 L 11.981588 40.852764 C 10.943633 40.474979 9.795947 41.010155 9.418162 42.048111 L 9.38707 42.133537 C 9.009285 43.171494 9.54446 44.319176 10.582415 44.69696 L 49.109814 58.719788 C 50.147766 59.097572 51.295452 58.562401 51.673237 57.524445 Z"/>
    <path id="Rectangle-copy" fill="#ffffff" fill-rule="evenodd" stroke="none" d="M 48.173954 57.46825 C 48.551739 58.506207 49.699425 59.041378 50.737381 58.663593 L 89.264778 44.64077 C 90.302734 44.262985 90.837906 43.115299 90.460121 42.077343 L 90.429031 41.991917 C 90.051247 40.95396 88.903557 40.418785 87.865601 40.79657 L 49.338207 54.819397 C 48.300251 55.197182 47.765076 56.344868 48.14286 57.382824 Z"/>
</svg>
