<?xml version="1.0" encoding="UTF-8"?>
<svg xmlns="http://www.w3.org/2000/svg" width="36" height="36" viewBox="0 0 36 36" fill="none">
  <path d="M20.1218 27.879L27.879 20.121L20.1218 27.879ZM15.879 20.121L8.12175 27.879L15.879 20.121ZM20.1218 15.879L27.879 8.121L20.1218 15.879ZM8.12175 15.879L15.879 8.121L8.12175 15.879ZM9 6C9 6.79565 8.68393 7.55871 8.12132 8.12132C7.55871 8.68393 6.79565 9 6 9C5.20435 9 4.44129 8.68393 3.87868 8.12132C3.31607 7.55871 3 6.79565 3 6C3 5.20435 3.31607 4.44129 3.87868 3.87868C4.44129 3.31607 5.20435 3 6 3C6.79565 3 7.55871 3.31607 8.12132 3.87868C8.68393 4.44129 9 5.20435 9 6V6ZM21 6C21 6.79565 20.6839 7.55871 20.1213 8.12132C19.5587 8.68393 18.7956 9 18 9C17.2044 9 16.4413 8.68393 15.8787 8.12132C15.3161 7.55871 15 6.79565 15 6C15 5.20435 15.3161 4.44129 15.8787 3.87868C16.4413 3.31607 17.2044 3 18 3C18.7956 3 19.5587 3.31607 20.1213 3.87868C20.6839 4.44129 21 5.20435 21 6V6ZM33 6C33 6.79565 32.6839 7.55871 32.1213 8.12132C31.5587 8.68393 30.7956 9 30 9C29.2044 9 28.4413 8.68393 27.8787 8.12132C27.3161 7.55871 27 6.79565 27 6C27 5.20435 27.3161 4.44129 27.8787 3.87868C28.4413 3.31607 29.2044 3 30 3C30.7956 3 31.5587 3.31607 32.1213 3.87868C32.6839 4.44129 33 5.20435 33 6V6ZM33 18C33 18.7956 32.6839 19.5587 32.1213 20.1213C31.5587 20.6839 30.7956 21 30 21C29.2044 21 28.4413 20.6839 27.8787 20.1213C27.3161 19.5587 27 18.7956 27 18C27 17.2044 27.3161 16.4413 27.8787 15.8787C28.4413 15.3161 29.2044 15 30 15C30.7956 15 31.5587 15.3161 32.1213 15.8787C32.6839 16.4413 33 17.2044 33 18ZM33 30C33 30.7956 32.6839 31.5587 32.1213 32.1213C31.5587 32.6839 30.7956 33 30 33C29.2044 33 28.4413 32.6839 27.8787 32.1213C27.3161 31.5587 27 30.7956 27 30C27 29.2044 27.3161 28.4413 27.8787 27.8787C28.4413 27.3161 29.2044 27 30 27C30.7956 27 31.5587 27.3161 32.1213 27.8787C32.6839 28.4413 33 29.2044 33 30V30ZM21 30C21 30.7956 20.6839 31.5587 20.1213 32.1213C19.5587 32.6839 18.7956 33 18 33C17.2044 33 16.4413 32.6839 15.8787 32.1213C15.3161 31.5587 15 30.7956 15 30C15 29.2044 15.3161 28.4413 15.8787 27.8787C16.4413 27.3161 17.2044 27 18 27C18.7956 27 19.5587 27.3161 20.1213 27.8787C20.6839 28.4413 21 29.2044 21 30V30ZM9 30C9 30.7956 8.68393 31.5587 8.12132 32.1213C7.55871 32.6839 6.79565 33 6 33C5.20435 33 4.44129 32.6839 3.87868 32.1213C3.31607 31.5587 3 30.7956 3 30C3 29.2044 3.31607 28.4413 3.87868 27.8787C4.44129 27.3161 5.20435 27 6 27C6.79565 27 7.55871 27.3161 8.12132 27.8787C8.68393 28.4413 9 29.2044 9 30V30ZM9 18C9 18.7956 8.68393 19.5587 8.12132 20.1213C7.55871 20.6839 6.79565 21 6 21C5.20435 21 4.44129 20.6839 3.87868 20.1213C3.31607 19.5587 3 18.7956 3 18C3 17.2044 3.31607 16.4413 3.87868 15.8787C4.44129 15.3161 5.20435 15 6 15C6.79565 15 7.55871 15.3161 8.12132 15.8787C8.68393 16.4413 9 17.2044 9 18ZM21 18C21 18.7956 20.6839 19.5587 20.1213 20.1213C19.5587 20.6839 18.7956 21 18 21C17.2044 21 16.4413 20.6839 15.8787 20.1213C15.3161 19.5587 15 18.7956 15 18C15 17.2044 15.3161 16.4413 15.8787 15.8787C16.4413 15.3161 17.2044 15 18 15C18.7956 15 19.5587 15.3161 20.1213 15.8787C20.6839 16.4413 21 17.2044 21 18V18Z" stroke="#121212" stroke-width="1.5" stroke-linecap="round" stroke-linejoin="round"></path>
</svg>
