<?xml version="1.0" encoding="UTF-8"?>
<svg xmlns="http://www.w3.org/2000/svg" width="50" height="50" viewBox="0 0 50 50" fill="none">
  <path d="M2.79688 36.102H13.8988V25L2.79688 36.102Z" stroke="black" stroke-width="1.5" stroke-miterlimit="10"></path>
  <path d="M13.8984 47.204V36.102H25.0004L13.8984 47.204Z" stroke="black" stroke-width="1.5" stroke-miterlimit="10"></path>
  <path d="M25.0004 36.102V25H13.8984C13.8984 31.1431 18.882 36.102 25.0004 36.102Z" stroke="black" stroke-width="1.5" stroke-miterlimit="10"></path>
  <path d="M47.2055 36.102H36.1035V25L47.2055 36.102Z" stroke="black" stroke-width="1.5" stroke-miterlimit="10"></path>
  <path d="M36.102 47.204V36.102H25L36.102 47.204Z" stroke="black" stroke-width="1.5" stroke-miterlimit="10"></path>
  <path d="M25 36.102V25H36.102C36.102 31.1431 31.1431 36.102 25 36.102Z" stroke="black" stroke-width="1.5" stroke-miterlimit="10"></path>
  <path d="M2.79688 13.898H13.8988V25L2.79688 13.898Z" stroke="black" stroke-width="1.5" stroke-miterlimit="10"></path>
  <path d="M13.8984 2.79605V13.898H25.0004L13.8984 2.79605Z" stroke="black" stroke-width="1.5" stroke-miterlimit="10"></path>
  <path d="M25.0004 13.898V25H13.8984C13.8984 18.8816 18.882 13.898 25.0004 13.898Z" stroke="black" stroke-width="1.5" stroke-miterlimit="10"></path>
  <path d="M47.2055 13.898H36.1035V25L47.2055 13.898Z" stroke="black" stroke-width="1.5" stroke-miterlimit="10"></path>
  <path d="M36.102 2.79605V13.898H25L36.102 2.79605Z" stroke="black" stroke-width="1.5" stroke-miterlimit="10"></path>
  <path d="M25 13.898V25H36.102C36.102 18.8816 31.1431 13.898 25 13.898Z" stroke="black" stroke-width="1.5" stroke-miterlimit="10"></path>
</svg>
