<?xml version="1.0" encoding="UTF-8"?>
<svg xmlns="http://www.w3.org/2000/svg" width="36" height="36" viewBox="0 0 36 36" fill="none">
  <g clip-path="url(#clip0_422_128)">
    <path d="M13.875 8C13.5103 8.00003 13.1606 8.13747 12.9028 8.38207C12.6449 8.62668 12.5 8.95842 12.5 9.30435V13.2174H10.6667C8.65 13.2174 7 14.7826 7 16.6956V24.5217C7 26.4348 8.65 28 10.6667 28H25.3333C27.35 28 29 26.4348 29 24.5217V16.6956C29 14.7826 27.35 13.2174 25.3333 13.2174H23.5V9.30435C23.5 8.95842 23.3551 8.62668 23.0972 8.38207C22.8394 8.13747 22.4897 8.00003 22.125 8H13.875ZM15.25 10.6087H20.75V13.2174H15.25V10.6087Z" stroke="#3C39C6" stroke-width="1.5"></path>
    <path d="M35.5 1H1V35.5H35.5V1Z" stroke="#3C39C6" stroke-width="1.5"></path>
  </g>
  <defs>
    <clipPath id="clip0_422_128">
      <rect width="36" height="36" fill="white"></rect>
    </clipPath>
  </defs>
</svg>
