<?xml version="1.0" encoding="UTF-8"?>
<!-- Generated by Pixelmator Pro 3.3.5 -->
<svg width="36" height="36" viewBox="0 0 36 36" xmlns="http://www.w3.org/2000/svg">
    <path id="path5" fill="none" stroke="#000000" stroke-width="2" d="M 1.28571 10 L 1.28571 1.285641 L 10 1.285641"/>
    <path id="path6" fill="none" stroke="#000000" stroke-width="2" d="M 34.714298 26 L 34.714298 34.714401 L 26 34.714401"/>
    <path id="path6-copy" fill="none" stroke="#000000" stroke-width="2" d="M 26 1.285702 L 34.714401 1.285702 L 34.714401 10"/>
    <path id="path6-copy-2" fill="none" stroke="#000000" stroke-width="2" d="M 10 34.714298 L 1.285599 34.714298 L 1.285599 26"/>
    <g id="funnel-svgrepo-com">
        <g id="Group">
            <path id="Path" fill="#000000" stroke="none" d="M 14.740644 29.574924 L 14.740644 17.99542 L 6.646185 8.620838 C 6.212988 8.090294 6.261662 7 7.38116 7 L 28.972872 7 C 30.024227 7 30.267597 7.963741 29.70785 8.620838 L 21.808084 17.747183 L 21.808084 24.911972 C 21.808084 25.204014 21.710737 25.452251 21.462502 25.646946 L 16.410156 30.3099 C 15.82607 30.743097 14.740644 30.509462 14.740644 29.574924 Z M 9.542278 8.966423 L 16.463697 16.963535 C 16.60972 17.15823 16.707067 17.357792 16.707067 17.60116 L 16.707067 27.365133 L 19.846529 24.517714 L 19.846529 17.406466 C 19.846529 17.163097 19.943876 16.963535 20.089899 16.768839 L 26.811756 8.966423 L 9.542278 8.966423 L 9.542278 8.966423 Z"/>
        </g>
    </g>
</svg>
