<?xml version="1.0" encoding="UTF-8"?>
<svg xmlns="http://www.w3.org/2000/svg" width="36" height="36" viewBox="0 0 36 36" fill="none">
  <path fill-rule="evenodd" clip-rule="evenodd" d="M4.72461 2.82812H31.2754C32.3185 2.82812 33.1719 3.68154 33.1719 4.72461V31.2754C33.1719 32.3185 32.3185 33.1719 31.2754 33.1719H4.72461C3.68154 33.1719 2.82812 32.3185 2.82812 31.2754V4.72461C2.82812 3.68154 3.68154 2.82812 4.72461 2.82812ZM7.19004 28.81C8.32793 29.9479 10.177 29.9479 11.3149 28.81C12.4528 27.6721 12.4528 25.823 11.3149 24.6851C10.177 23.5472 8.32793 23.5472 7.19004 24.6851C6.05215 25.823 6.05215 27.6721 7.19004 28.81ZM7.19004 11.2438C8.32793 12.3817 10.177 12.3817 11.3149 11.2438C12.4528 10.1059 12.4528 8.25681 11.3149 7.11892C10.177 5.98103 8.32793 5.98103 7.19004 7.11892C6.05215 8.25681 6.05215 10.1059 7.19004 11.2438ZM24.7562 28.81C25.8941 29.9479 27.7432 29.9479 28.8811 28.81C30.019 27.6721 30.019 25.823 28.8811 24.6851C27.7432 23.5472 25.8941 23.5472 24.7562 24.6851C23.6183 25.823 23.6183 27.6721 24.7562 28.81ZM24.7562 11.2438C25.8941 12.3817 27.7432 12.3817 28.8811 11.2438C30.019 10.1059 30.019 8.25681 28.8811 7.11892C27.7432 5.98103 25.8941 5.98103 24.7562 7.11892C23.6183 8.25681 23.6183 10.1059 24.7562 11.2438ZM16.9093 19.7514V15.7457L21.8513 12.939C22.2608 12.7038 22.7759 12.9918 22.7759 13.4549V16.2971C23.1793 16.657 23.4325 17.1771 23.4325 17.7525C23.4325 18.328 23.1793 18.8448 22.7759 19.2049V22.0431C22.7759 22.5086 22.2584 22.7965 21.8513 22.559L16.9093 19.7514ZM16.1855 22.7562C14.763 21.0861 15.4081 19.6751 15.4081 19.6751L15.2978 19.6673H16.5484V15.828H13.0608V15.8304C12.4943 15.8304 12.0332 16.2815 12.0332 16.8358V18.6619C12.0332 19.2162 12.4943 19.6673 13.0608 19.6673H13.7396C13.1227 21.0662 13.9108 22.4724 14.1909 22.9723L14.1989 22.9866C14.2553 23.085 14.3583 23.145 14.4736 23.145H15.9967C16.2027 23.145 16.318 22.9098 16.1855 22.7562Z" fill="#3C39C6"></path>
</svg>
