<?xml version="1.0" encoding="UTF-8"?>
<svg xmlns="http://www.w3.org/2000/svg" width="36" height="36" viewBox="0 0 36 36" fill="none">
  <path d="M32.7227 2H23.8059V20.9144C23.8059 22.3477 23.1796 23.7223 22.0648 24.7357C20.9499 25.7492 19.4379 26.3186 17.8613 26.3186C16.2848 26.3186 14.7727 25.7492 13.6579 24.7357C12.5431 23.7223 11.9168 22.3477 11.9168 20.9144V2H3V20.9144C3 24.4976 4.56574 27.934 7.35279 30.4677C10.1398 33.0013 13.9199 34.4247 17.8613 34.4247C19.813 34.4247 21.7455 34.0753 23.5485 33.3963C25.3516 32.7174 26.9899 31.7222 28.3699 30.4677C29.7499 29.2131 30.8446 27.7237 31.5914 26.0846C32.3383 24.4455 32.7227 22.6886 32.7227 20.9144V2Z" stroke="black" stroke-width="0.7"></path>
  <path d="M23.7578 10.098V2H32.7528V10.098H23.7578Z" fill="black"></path>
  <path d="M3 10.098V2H11.995V10.098H3Z" fill="black"></path>
  <path d="M11.9168 10.1062H3" stroke="black" stroke-width="0.7"></path>
  <path d="M23.8047 10.1062H32.7215" stroke="black" stroke-width="0.7"></path>
</svg>
