<?xml version="1.0" encoding="UTF-8"?>
<!-- Generated by Pixelmator Pro 3.3.5 -->
<svg width="36" height="36" viewBox="0 0 36 36" xmlns="http://www.w3.org/2000/svg">
    <path id="Path" fill="#313131" stroke="#313131" d="M 32.722698 2 L 23.805901 2 L 23.805901 20.9144 C 23.805901 22.3477 23.1796 23.7223 22.0648 24.735701 C 20.9499 25.749201 19.437901 26.3186 17.8613 26.3186 C 16.2848 26.3186 14.7727 25.749201 13.6579 24.735701 C 12.5431 23.7223 11.9168 22.3477 11.9168 20.9144 L 11.9168 2 L 3 2 L 3 20.9144 C 3 24.497601 4.56574 27.934 7.35279 30.467699 C 10.1398 33.001301 13.9199 34.424702 17.8613 34.424702 C 19.813 34.424702 21.745501 34.075298 23.5485 33.396301 C 25.351601 32.7174 26.989901 31.7222 28.3699 30.467699 C 29.749901 29.2131 30.844601 27.7237 31.5914 26.0846 C 32.338299 24.445499 32.722698 22.688601 32.722698 20.9144 L 32.722698 2 Z"/>
    <path id="path1" fill="#121212" stroke="none" d="M 25 10.098 L 25 3 L 32 3 L 32 10.098 L 25 10.098 Z"/>
    <path id="Path-copy" fill="#121212" stroke="none" d="M 4 10.098 L 4 3 L 11 3 L 11 10.098 L 4 10.098 Z"/>
</svg>
