<?xml version="1.0" encoding="UTF-8"?>
<svg xmlns="http://www.w3.org/2000/svg" width="52" height="48" viewBox="0 0 52 48" fill="none">
  <path d="M26 33.7888V46.025M40.6834 46.025L31.0134 37.9666C29.2299 36.4804 28.3381 35.7372 27.3427 35.4533C26.4651 35.2029 25.5349 35.2029 24.6573 35.4533C23.6618 35.7372 22.7701 36.4804 20.9866 37.9666L11.3165 46.025M16.211 21.5526V23.9998M26 16.6581V23.9998M35.789 11.7636V23.9998M50.4724 1.97461H1.52754M3.97479 1.97461H48.0252V22.042C48.0252 26.1538 48.0252 28.2096 47.225 29.7801C46.5211 31.1616 45.3979 32.2847 44.0165 32.9886C42.446 33.7888 40.3902 33.7888 36.2784 33.7888H15.7216C11.6098 33.7888 9.55392 33.7888 7.98344 32.9886C6.602 32.2847 5.47886 31.1616 4.77499 29.7801C3.97479 28.2096 3.97479 26.1538 3.97479 22.042V1.97461Z" stroke="#3C39C6" stroke-width="2" stroke-linecap="round" stroke-linejoin="round"></path>
</svg>
