<?xml version="1.0" encoding="UTF-8"?>
<svg xmlns="http://www.w3.org/2000/svg" width="37" height="37" viewBox="0 0 37 37" fill="none">
  <path d="M26.6642 13.5548H9.78613C10.7429 11.9651 11.9868 10.3563 13.5177 8.84332C18.7227 3.63393 25.0568 1.50803 27.6593 4.11273C29.4964 5.97049 28.9797 9.68602 26.6642 13.5548Z" stroke="#121212" stroke-width="1.5" stroke-miterlimit="10"></path>
  <path d="M9.78612 13.5547L18.2252 28.187C16.369 28.1487 14.3597 27.8806 12.2738 27.3251C5.15517 25.4099 0.160632 20.9858 1.11744 17.4235C1.78721 14.8954 5.26999 13.4781 9.78612 13.5547Z" stroke="#121212" stroke-width="1.5" stroke-miterlimit="10"></path>
  <path d="M18.2256 28.187L26.6646 13.5547C27.564 15.1827 28.3295 17.0596 28.8844 19.1472C30.7981 26.2718 29.4585 32.8219 25.8992 33.7795C23.3732 34.4498 20.4071 32.1324 18.2256 28.187Z" stroke="#121212" stroke-width="1.5" stroke-miterlimit="10"></path>
  <path d="M9.78562 13.5548H26.6637C25.7069 11.9651 24.4631 10.3563 22.9322 8.84332C17.7271 3.63393 11.3931 1.50803 8.79054 4.11273C6.95347 5.97049 7.47014 9.68602 9.78562 13.5548Z" stroke="#121212" stroke-width="1.5" stroke-miterlimit="10"></path>
  <path d="M26.6646 13.5547L18.2256 28.187C20.0818 28.1487 22.0911 27.8806 24.1769 27.3251C31.2956 25.4099 36.2901 20.9858 35.3333 17.4235C34.6636 14.8954 31.1808 13.4781 26.6646 13.5547Z" stroke="#121212" stroke-width="1.5" stroke-miterlimit="10"></path>
  <path d="M18.2248 28.187L9.78573 13.5547C8.88633 15.1827 8.12088 17.0596 7.56593 19.1472C5.65231 26.2718 6.99184 32.8219 10.5512 33.7795C13.0771 34.4498 16.0433 32.1324 18.2248 28.187Z" stroke="#121212" stroke-width="1.5" stroke-miterlimit="10"></path>
</svg>
