<?xml version="1.0" encoding="UTF-8"?>
<svg xmlns="http://www.w3.org/2000/svg" width="36" height="36" viewBox="0 0 36 36" fill="none">
  <path d="M15.8048 27.8917H14.2577C13.6874 25.2379 11.4571 21.788 11.299 21.5452C11.2934 21.5395 11.2877 21.5339 11.2877 21.5339C10.3561 20.2013 9.80273 18.5808 9.80273 16.8248C9.80273 12.1496 13.7044 8.38918 18.4304 8.63762C22.4449 8.84653 25.7989 12.0537 26.1602 16.0626C26.3465 18.1122 25.7763 20.015 24.7035 21.5395C24.7035 21.5395 24.6922 21.5565 24.6696 21.5903C24.6583 21.6073 24.647 21.6299 24.6301 21.6525C24.2235 22.2905 22.2925 25.396 21.7504 27.8465H20.2033" stroke="#3C39C6" stroke-width="0.71" stroke-miterlimit="10" stroke-linecap="round" stroke-linejoin="round"></path>
  <path d="M18 1.18457V5.90492" stroke="#3C39C6" stroke-width="0.71" stroke-miterlimit="10" stroke-linecap="round" stroke-linejoin="round"></path>
  <path d="M2.21289 15.3513H6.93889" stroke="#3C39C6" stroke-width="0.71" stroke-miterlimit="10" stroke-linecap="round" stroke-linejoin="round"></path>
  <path d="M3.89648 22.7479L7.6626 19.8965" stroke="#3C39C6" stroke-width="0.71" stroke-miterlimit="10" stroke-linecap="round" stroke-linejoin="round"></path>
  <path d="M4.32422 7.71167L8.47429 9.97021" stroke="#3C39C6" stroke-width="0.71" stroke-miterlimit="10" stroke-linecap="round" stroke-linejoin="round"></path>
  <path d="M9.79102 2.82764L12.4504 6.73491" stroke="#3C39C6" stroke-width="0.71" stroke-miterlimit="10" stroke-linecap="round" stroke-linejoin="round"></path>
  <path d="M33.7865 15.3513H29.0605" stroke="#3C39C6" stroke-width="0.71" stroke-miterlimit="10" stroke-linecap="round" stroke-linejoin="round"></path>
  <path d="M32.104 22.7479L28.3379 19.8965" stroke="#3C39C6" stroke-width="0.71" stroke-miterlimit="10" stroke-linecap="round" stroke-linejoin="round"></path>
  <path d="M31.6755 7.71167L27.5254 9.97021" stroke="#3C39C6" stroke-width="0.71" stroke-miterlimit="10" stroke-linecap="round" stroke-linejoin="round"></path>
  <path d="M26.2102 2.82764L23.5508 6.73491" stroke="#3C39C6" stroke-width="0.71" stroke-miterlimit="10" stroke-linecap="round" stroke-linejoin="round"></path>
  <path d="M15.8027 20.8916V34.8155" stroke="#3C39C6" stroke-width="0.71" stroke-miterlimit="10" stroke-linecap="round" stroke-linejoin="round"></path>
  <path d="M20.2012 20.8916V34.8155" stroke="#3C39C6" stroke-width="0.71" stroke-miterlimit="10" stroke-linecap="round" stroke-linejoin="round"></path>
  <path d="M15.8027 22.2749H20.2012" stroke="#3C39C6" stroke-width="0.71" stroke-miterlimit="10" stroke-linecap="round" stroke-linejoin="round"></path>
  <path d="M15.8027 25.499H20.2012" stroke="#3C39C6" stroke-width="0.71" stroke-miterlimit="10" stroke-linecap="round" stroke-linejoin="round"></path>
  <path d="M15.8027 28.8699H20.2012" stroke="#3C39C6" stroke-width="0.71" stroke-miterlimit="10" stroke-linecap="round" stroke-linejoin="round"></path>
  <path d="M15.8027 32.6699H20.2012" stroke="#3C39C6" stroke-width="0.71" stroke-miterlimit="10" stroke-linecap="round" stroke-linejoin="round"></path>
</svg>
