<?xml version="1.0" encoding="UTF-8"?>
<!-- Generated by Pixelmator Pro 3.3.5 -->
<svg width="100" height="100" viewBox="0 0 100 100" xmlns="http://www.w3.org/2000/svg">
    <path id="Rectangle" fill="none" stroke="#3c39c6" stroke-width="2" d="M 16 99 L 31 99 L 31 9 L 16 9 Z"/>
    <path id="Rectangle-copy" fill="none" stroke="#3c39c6" stroke-width="2" d="M 76 24 L 76 9 L 0 9 L 0 24 Z"/>
    <path id="Rectangle-copy-2" fill="none" stroke="#3c39c6" stroke-width="2" d="M 31 24 L 31 9 L 16 9 L 16 24 Z"/>
    <path id="Rectangle-copy-6" fill="none" stroke="#3c39c6" stroke-width="2" d="M 16 24 L 16 9 L 1 9 L 1 24 Z"/>
    <path id="Rectangle-copy-7" fill="none" stroke="#3c39c6" stroke-width="2" d="M 31 39 L 31 24 L 16 24 L 16 39 Z"/>
    <path id="Rectangle-copy-8" fill="none" stroke="#3c39c6" stroke-width="2" d="M 31 54 L 31 39 L 16 39 L 16 54 Z"/>
    <path id="Rectangle-copy-9" fill="none" stroke="#3c39c6" stroke-width="2" d="M 31 69 L 31 54 L 16 54 L 16 69 Z"/>
    <path id="Rectangle-copy-10" fill="none" stroke="#3c39c6" stroke-width="2" d="M 31 84 L 31 69 L 16 69 L 16 84 Z"/>
    <path id="Rectangle-copy-16" fill="none" stroke="#3c39c6" stroke-width="2" d="M 31 99 L 31 84 L 16 84 L 16 99 Z"/>
    <path id="path1" fill="#3c39c6" fill-rule="evenodd" stroke="none" d="M 75.100502 9.514717 L 89.792892 24.207108 L 91.207108 22.792892 L 76.514717 8.100502 Z"/>
    <path id="Rectangle-copy-17" fill="#3c39c6" fill-rule="evenodd" stroke="none" d="M 61.100506 10.514717 L 75.792892 25.207108 L 77.207108 23.792892 L 62.514717 9.100502 Z"/>
    <path id="Rectangle-copy-18" fill="#3c39c6" fill-rule="evenodd" stroke="none" d="M 45.100506 9.514717 L 59.792892 24.207108 L 61.207108 22.792892 L 46.514717 8.100502 Z"/>
    <path id="Rectangle-copy-19" fill="#3c39c6" fill-rule="evenodd" stroke="none" d="M 31.100506 10.514717 L 45.792892 25.207108 L 47.207108 23.792892 L 32.514717 9.100502 Z"/>
    <path id="Rectangle-copy-20" fill="#3c39c6" fill-rule="evenodd" stroke="none" d="M 16.100506 10.514717 L 30.792894 25.207108 L 32.207108 23.792892 L 17.514719 9.100502 Z"/>
    <path id="Rectangle-copy-21" fill="#3c39c6" fill-rule="evenodd" stroke="none" d="M 0.100505 9.514717 L 14.792893 24.207108 L 16.207108 22.792892 L 1.514719 8.100502 Z"/>
    <path id="Rectangle-copy-22" fill="#3c39c6" fill-rule="evenodd" stroke="none" d="M 16.100506 25.514717 L 30.792894 40.207108 L 32.207108 38.792892 L 17.514719 24.100502 Z"/>
    <path id="Rectangle-copy-23" fill="#3c39c6" fill-rule="evenodd" stroke="none" d="M 16.100506 40.514717 L 30.792894 55.207108 L 32.207108 53.792892 L 17.514719 39.100506 Z"/>
    <path id="Rectangle-copy-24" fill="#3c39c6" fill-rule="evenodd" stroke="none" d="M 15.100505 54.514717 L 29.792894 69.207108 L 31.207108 67.792892 L 16.514719 53.100506 Z"/>
    <path id="Rectangle-copy-25" fill="#3c39c6" fill-rule="evenodd" stroke="none" d="M 15.100505 69.514717 L 29.792894 84.207108 L 31.207108 82.792892 L 16.514719 68.10051 Z"/>
    <path id="Rectangle-copy-26" fill="#3c39c6" fill-rule="evenodd" stroke="none" d="M 15.100505 84.514717 L 29.792894 99.207108 L 31.207108 97.792892 L 16.514719 83.10051 Z"/>
    <path id="Rectangle-copy-11" fill="#3c39c6" fill-rule="evenodd" stroke="none" d="M 69.82843 25 L 90.606606 25 L 90.606606 23 L 69.82843 23 Z"/>
    <path id="Rectangle-copy-12" fill="#3c39c6" fill-rule="evenodd" stroke="none" d="M 77 57 L 77 24.17157 L 75 24.17157 L 75 57 Z"/>
    <path id="Rectangle-copy-13" fill="#3c39c6" fill-rule="evenodd" stroke="none" d="M 63.393398 70.020813 L 77.207108 56.207108 L 75.792892 54.792892 L 61.979183 68.606598 Z"/>
    <path id="Rectangle-copy-14" fill="#3c39c6" fill-rule="evenodd" stroke="none" d="M 74.979187 56.393398 L 88.792892 70.207108 L 90.207108 68.792892 L 76.393394 54.979183 Z"/>
    <path id="Rectangle-copy-3" fill="none" stroke="#3c39c6" stroke-width="2" d="M 46 24 L 46 9 L 31 9 L 31 24 Z"/>
    <path id="Rectangle-copy-15" fill="none" stroke="#3c39c6" stroke-width="2" d="M 46 24 L 46 9 L 31 9 L 31 24 Z"/>
    <path id="Rectangle-copy-4" fill="none" stroke="#3c39c6" stroke-width="2" d="M 89 85 L 89 70 L 63 70 L 63 85 Z"/>
    <path id="Rectangle-copy-5" fill="none" stroke="#3c39c6" stroke-width="2" d="M 76 24 L 76 9 L 61 9 L 61 24 Z"/>
</svg>
