<svg width="105" height="100" viewBox="0 0 105 100" fill="none" xmlns="http://www.w3.org/2000/svg">
<path d="M104.997 21.4312C104.997 21.3668 104.997 21.3025 104.997 21.2362C104.923 17.7103 102.37 15.1906 98.8657 15.1906C95.9179 15.1906 92.9681 15.22 90.0203 15.1712C89.1336 15.1556 88.4978 15.3663 87.9533 16.1113C87.37 16.9167 86.6193 17.607 85.9543 18.3618C85.1765 19.2471 84.4105 20.1461 83.6385 21.0393L83.7707 21.2986H84.8207C87.7043 21.2986 90.5939 21.4059 93.4698 21.2674C96.1007 21.1426 98.0937 23.1981 98.0548 25.8972C97.9848 30.6517 98.0276 35.4062 98.0315 40.1607C98.0393 50.117 98.0535 60.0733 98.0742 70.0296C98.0859 73.3039 95.9509 74.905 93.2131 74.905C65.7999 74.8426 38.3868 74.8426 10.9736 74.905C8.0569 74.905 6.16689 72.8906 6.1805 70.0667C6.2531 55.3754 6.2531 40.6841 6.1805 25.9928C6.16884 23.1884 8.17353 21.2557 10.8861 21.2674C26.5041 21.3376 42.124 21.2383 57.7478 21.367C60.2076 21.3865 61.9129 20.8502 63.1224 18.6621C63.766 17.492 64.6916 16.4856 65.5958 15.2628C65.1194 15.2297 64.8452 15.1927 64.569 15.1927H6.14746C2.54824 15.1927 0.00680565 17.6928 0.00680565 21.2908C-0.00226855 40.9863 -0.00226855 60.6831 0.00680565 80.3811C0.00680565 84.3029 2.46267 86.7622 6.37495 86.7641C37.0976 86.7641 67.8163 86.7641 98.5312 86.7641C99.2405 86.7809 99.9486 86.698 100.635 86.5183C103.392 85.7226 104.993 83.4488 104.995 80.3402C105.001 60.698 105.002 41.0616 104.997 21.4312Z" fill="#313131"/>
<path d="M44.3504 49.0536C44.191 49.272 44.1016 49.7927 44.2357 49.939C45.8497 51.7058 47.5102 53.4297 49.2408 55.2492C52.8342 51.2728 56.1864 47.5792 59.5212 43.8719C65.0863 37.6847 70.6468 31.4923 76.2028 25.2946C80.8696 20.0896 85.5363 14.867 90.242 9.69321C90.5773 9.34625 90.8253 8.9242 90.9656 8.46197C91.106 7.99973 91.1345 7.51064 91.0489 7.03514C90.6075 3.74715 88.6631 1.61757 85.6841 0.461113C83.0377 -0.564679 80.3426 0.172434 78.8531 2.16161C76.9087 4.75339 74.9953 7.36459 73.0761 9.97393C66.7786 18.5326 60.4825 27.0939 54.1876 35.6578C50.9053 40.1217 47.6133 44.5857 44.3504 49.0536Z" fill="#313131"/>
<path d="M61.7554 89.662C61.6466 89.5374 61.5131 89.4368 61.3635 89.3666C61.2139 89.2964 61.0513 89.2583 60.8862 89.2544C54.9232 89.2297 48.9601 89.2297 42.9971 89.2544C42.8019 89.2701 42.6122 89.3268 42.4403 89.4209C42.2685 89.515 42.1183 89.6443 41.9996 89.8004C40.549 92.0626 39.149 94.358 37.7431 96.6495C37.0878 97.7143 36.4539 98.7948 35.7267 100H68.4463C68.3832 99.823 68.3071 99.6508 68.2188 99.485C66.0741 96.2068 63.9313 92.9227 61.7554 89.662Z" fill="#313131"/>
<path d="M42.4974 51.2474C40.6424 50.6936 38.0776 51.7311 37.1209 53.4395C36.7848 54.0311 36.4992 54.6501 36.2673 55.29C34.9314 59.0558 32.5728 61.7998 28.6838 63.0323C28.295 63.1532 27.9293 63.2916 27.5074 63.4398C27.6318 63.5822 27.6649 63.6602 27.7155 63.6739C28.0577 63.7636 28.4019 63.8515 28.7499 63.9217C32.6914 64.7154 36.6425 65.3667 40.689 64.7933C44.8521 64.2083 47.3896 61.831 48.183 57.7727C48.3113 57.1175 48.251 56.622 47.7299 56.1267C46.1743 54.6563 44.6752 53.1293 43.1429 51.6413C42.9613 51.4613 42.7402 51.3265 42.4974 51.2474Z" fill="#313131"/>
</svg>
